%TF.GenerationSoftware,KiCad,Pcbnew,(5.1.6)-1*%
%TF.CreationDate,2020-10-23T19:33:20-04:00*%
%TF.ProjectId,ECE477,45434534-3737-42e6-9b69-6361645f7063,rev?*%
%TF.SameCoordinates,Original*%
%TF.FileFunction,Soldermask,Bot*%
%TF.FilePolarity,Negative*%
%FSLAX46Y46*%
G04 Gerber Fmt 4.6, Leading zero omitted, Abs format (unit mm)*
G04 Created by KiCad (PCBNEW (5.1.6)-1) date 2020-10-23 19:33:20*
%MOMM*%
%LPD*%
G01*
G04 APERTURE LIST*
%ADD10O,1.800000X1.800000*%
%ADD11R,1.800000X1.800000*%
%ADD12C,1.700000*%
%ADD13R,1.700000X1.700000*%
%ADD14C,3.300000*%
%ADD15C,0.100000*%
%ADD16C,1.800000*%
%ADD17C,1.600000*%
G04 APERTURE END LIST*
D10*
%TO.C,PWR_On1*%
X186690000Y-62230000D03*
X186690000Y-64770000D03*
D11*
X186690000Y-67310000D03*
%TD*%
%TO.C,R28*%
G36*
G01*
X240821738Y-93355000D02*
X241778262Y-93355000D01*
G75*
G02*
X242050000Y-93626738I0J-271738D01*
G01*
X242050000Y-94333262D01*
G75*
G02*
X241778262Y-94605000I-271738J0D01*
G01*
X240821738Y-94605000D01*
G75*
G02*
X240550000Y-94333262I0J271738D01*
G01*
X240550000Y-93626738D01*
G75*
G02*
X240821738Y-93355000I271738J0D01*
G01*
G37*
G36*
G01*
X240821738Y-91305000D02*
X241778262Y-91305000D01*
G75*
G02*
X242050000Y-91576738I0J-271738D01*
G01*
X242050000Y-92283262D01*
G75*
G02*
X241778262Y-92555000I-271738J0D01*
G01*
X240821738Y-92555000D01*
G75*
G02*
X240550000Y-92283262I0J271738D01*
G01*
X240550000Y-91576738D01*
G75*
G02*
X240821738Y-91305000I271738J0D01*
G01*
G37*
%TD*%
%TO.C,R27*%
G36*
G01*
X239238262Y-92065000D02*
X238281738Y-92065000D01*
G75*
G02*
X238010000Y-91793262I0J271738D01*
G01*
X238010000Y-91086738D01*
G75*
G02*
X238281738Y-90815000I271738J0D01*
G01*
X239238262Y-90815000D01*
G75*
G02*
X239510000Y-91086738I0J-271738D01*
G01*
X239510000Y-91793262D01*
G75*
G02*
X239238262Y-92065000I-271738J0D01*
G01*
G37*
G36*
G01*
X239238262Y-94115000D02*
X238281738Y-94115000D01*
G75*
G02*
X238010000Y-93843262I0J271738D01*
G01*
X238010000Y-93136738D01*
G75*
G02*
X238281738Y-92865000I271738J0D01*
G01*
X239238262Y-92865000D01*
G75*
G02*
X239510000Y-93136738I0J-271738D01*
G01*
X239510000Y-93843262D01*
G75*
G02*
X239238262Y-94115000I-271738J0D01*
G01*
G37*
%TD*%
%TO.C,R26*%
G36*
G01*
X237011738Y-114455000D02*
X237968262Y-114455000D01*
G75*
G02*
X238240000Y-114726738I0J-271738D01*
G01*
X238240000Y-115433262D01*
G75*
G02*
X237968262Y-115705000I-271738J0D01*
G01*
X237011738Y-115705000D01*
G75*
G02*
X236740000Y-115433262I0J271738D01*
G01*
X236740000Y-114726738D01*
G75*
G02*
X237011738Y-114455000I271738J0D01*
G01*
G37*
G36*
G01*
X237011738Y-112405000D02*
X237968262Y-112405000D01*
G75*
G02*
X238240000Y-112676738I0J-271738D01*
G01*
X238240000Y-113383262D01*
G75*
G02*
X237968262Y-113655000I-271738J0D01*
G01*
X237011738Y-113655000D01*
G75*
G02*
X236740000Y-113383262I0J271738D01*
G01*
X236740000Y-112676738D01*
G75*
G02*
X237011738Y-112405000I271738J0D01*
G01*
G37*
%TD*%
%TO.C,R25*%
G36*
G01*
X235741738Y-94380000D02*
X236698262Y-94380000D01*
G75*
G02*
X236970000Y-94651738I0J-271738D01*
G01*
X236970000Y-95358262D01*
G75*
G02*
X236698262Y-95630000I-271738J0D01*
G01*
X235741738Y-95630000D01*
G75*
G02*
X235470000Y-95358262I0J271738D01*
G01*
X235470000Y-94651738D01*
G75*
G02*
X235741738Y-94380000I271738J0D01*
G01*
G37*
G36*
G01*
X235741738Y-92330000D02*
X236698262Y-92330000D01*
G75*
G02*
X236970000Y-92601738I0J-271738D01*
G01*
X236970000Y-93308262D01*
G75*
G02*
X236698262Y-93580000I-271738J0D01*
G01*
X235741738Y-93580000D01*
G75*
G02*
X235470000Y-93308262I0J271738D01*
G01*
X235470000Y-92601738D01*
G75*
G02*
X235741738Y-92330000I271738J0D01*
G01*
G37*
%TD*%
%TO.C,R24*%
G36*
G01*
X240185000Y-83028262D02*
X240185000Y-82071738D01*
G75*
G02*
X240456738Y-81800000I271738J0D01*
G01*
X241163262Y-81800000D01*
G75*
G02*
X241435000Y-82071738I0J-271738D01*
G01*
X241435000Y-83028262D01*
G75*
G02*
X241163262Y-83300000I-271738J0D01*
G01*
X240456738Y-83300000D01*
G75*
G02*
X240185000Y-83028262I0J271738D01*
G01*
G37*
G36*
G01*
X238135000Y-83028262D02*
X238135000Y-82071738D01*
G75*
G02*
X238406738Y-81800000I271738J0D01*
G01*
X239113262Y-81800000D01*
G75*
G02*
X239385000Y-82071738I0J-271738D01*
G01*
X239385000Y-83028262D01*
G75*
G02*
X239113262Y-83300000I-271738J0D01*
G01*
X238406738Y-83300000D01*
G75*
G02*
X238135000Y-83028262I0J271738D01*
G01*
G37*
%TD*%
%TO.C,R18*%
G36*
G01*
X223120000Y-90961738D02*
X223120000Y-91918262D01*
G75*
G02*
X222848262Y-92190000I-271738J0D01*
G01*
X222141738Y-92190000D01*
G75*
G02*
X221870000Y-91918262I0J271738D01*
G01*
X221870000Y-90961738D01*
G75*
G02*
X222141738Y-90690000I271738J0D01*
G01*
X222848262Y-90690000D01*
G75*
G02*
X223120000Y-90961738I0J-271738D01*
G01*
G37*
G36*
G01*
X225170000Y-90961738D02*
X225170000Y-91918262D01*
G75*
G02*
X224898262Y-92190000I-271738J0D01*
G01*
X224191738Y-92190000D01*
G75*
G02*
X223920000Y-91918262I0J271738D01*
G01*
X223920000Y-90961738D01*
G75*
G02*
X224191738Y-90690000I271738J0D01*
G01*
X224898262Y-90690000D01*
G75*
G02*
X225170000Y-90961738I0J-271738D01*
G01*
G37*
%TD*%
%TO.C,R16*%
G36*
G01*
X222875000Y-85881738D02*
X222875000Y-86838262D01*
G75*
G02*
X222603262Y-87110000I-271738J0D01*
G01*
X221896738Y-87110000D01*
G75*
G02*
X221625000Y-86838262I0J271738D01*
G01*
X221625000Y-85881738D01*
G75*
G02*
X221896738Y-85610000I271738J0D01*
G01*
X222603262Y-85610000D01*
G75*
G02*
X222875000Y-85881738I0J-271738D01*
G01*
G37*
G36*
G01*
X224925000Y-85881738D02*
X224925000Y-86838262D01*
G75*
G02*
X224653262Y-87110000I-271738J0D01*
G01*
X223946738Y-87110000D01*
G75*
G02*
X223675000Y-86838262I0J271738D01*
G01*
X223675000Y-85881738D01*
G75*
G02*
X223946738Y-85610000I271738J0D01*
G01*
X224653262Y-85610000D01*
G75*
G02*
X224925000Y-85881738I0J-271738D01*
G01*
G37*
%TD*%
%TO.C,R15*%
G36*
G01*
X222875000Y-79531738D02*
X222875000Y-80488262D01*
G75*
G02*
X222603262Y-80760000I-271738J0D01*
G01*
X221896738Y-80760000D01*
G75*
G02*
X221625000Y-80488262I0J271738D01*
G01*
X221625000Y-79531738D01*
G75*
G02*
X221896738Y-79260000I271738J0D01*
G01*
X222603262Y-79260000D01*
G75*
G02*
X222875000Y-79531738I0J-271738D01*
G01*
G37*
G36*
G01*
X224925000Y-79531738D02*
X224925000Y-80488262D01*
G75*
G02*
X224653262Y-80760000I-271738J0D01*
G01*
X223946738Y-80760000D01*
G75*
G02*
X223675000Y-80488262I0J271738D01*
G01*
X223675000Y-79531738D01*
G75*
G02*
X223946738Y-79260000I271738J0D01*
G01*
X224653262Y-79260000D01*
G75*
G02*
X224925000Y-79531738I0J-271738D01*
G01*
G37*
%TD*%
%TO.C,C10*%
G36*
G01*
X245735000Y-83341738D02*
X245735000Y-84298262D01*
G75*
G02*
X245463262Y-84570000I-271738J0D01*
G01*
X244756738Y-84570000D01*
G75*
G02*
X244485000Y-84298262I0J271738D01*
G01*
X244485000Y-83341738D01*
G75*
G02*
X244756738Y-83070000I271738J0D01*
G01*
X245463262Y-83070000D01*
G75*
G02*
X245735000Y-83341738I0J-271738D01*
G01*
G37*
G36*
G01*
X247785000Y-83341738D02*
X247785000Y-84298262D01*
G75*
G02*
X247513262Y-84570000I-271738J0D01*
G01*
X246806738Y-84570000D01*
G75*
G02*
X246535000Y-84298262I0J271738D01*
G01*
X246535000Y-83341738D01*
G75*
G02*
X246806738Y-83070000I271738J0D01*
G01*
X247513262Y-83070000D01*
G75*
G02*
X247785000Y-83341738I0J-271738D01*
G01*
G37*
%TD*%
%TO.C,C8*%
G36*
G01*
X245980000Y-85881738D02*
X245980000Y-86838262D01*
G75*
G02*
X245708262Y-87110000I-271738J0D01*
G01*
X245001738Y-87110000D01*
G75*
G02*
X244730000Y-86838262I0J271738D01*
G01*
X244730000Y-85881738D01*
G75*
G02*
X245001738Y-85610000I271738J0D01*
G01*
X245708262Y-85610000D01*
G75*
G02*
X245980000Y-85881738I0J-271738D01*
G01*
G37*
G36*
G01*
X248030000Y-85881738D02*
X248030000Y-86838262D01*
G75*
G02*
X247758262Y-87110000I-271738J0D01*
G01*
X247051738Y-87110000D01*
G75*
G02*
X246780000Y-86838262I0J271738D01*
G01*
X246780000Y-85881738D01*
G75*
G02*
X247051738Y-85610000I271738J0D01*
G01*
X247758262Y-85610000D01*
G75*
G02*
X248030000Y-85881738I0J-271738D01*
G01*
G37*
%TD*%
D12*
%TO.C,C7*%
X246340000Y-78740000D03*
D13*
X243840000Y-78740000D03*
%TD*%
%TO.C,C6*%
G36*
G01*
X229391738Y-93355000D02*
X230348262Y-93355000D01*
G75*
G02*
X230620000Y-93626738I0J-271738D01*
G01*
X230620000Y-94333262D01*
G75*
G02*
X230348262Y-94605000I-271738J0D01*
G01*
X229391738Y-94605000D01*
G75*
G02*
X229120000Y-94333262I0J271738D01*
G01*
X229120000Y-93626738D01*
G75*
G02*
X229391738Y-93355000I271738J0D01*
G01*
G37*
G36*
G01*
X229391738Y-91305000D02*
X230348262Y-91305000D01*
G75*
G02*
X230620000Y-91576738I0J-271738D01*
G01*
X230620000Y-92283262D01*
G75*
G02*
X230348262Y-92555000I-271738J0D01*
G01*
X229391738Y-92555000D01*
G75*
G02*
X229120000Y-92283262I0J271738D01*
G01*
X229120000Y-91576738D01*
G75*
G02*
X229391738Y-91305000I271738J0D01*
G01*
G37*
%TD*%
%TO.C,C4*%
G36*
G01*
X230348262Y-87230000D02*
X229391738Y-87230000D01*
G75*
G02*
X229120000Y-86958262I0J271738D01*
G01*
X229120000Y-86251738D01*
G75*
G02*
X229391738Y-85980000I271738J0D01*
G01*
X230348262Y-85980000D01*
G75*
G02*
X230620000Y-86251738I0J-271738D01*
G01*
X230620000Y-86958262D01*
G75*
G02*
X230348262Y-87230000I-271738J0D01*
G01*
G37*
G36*
G01*
X230348262Y-89280000D02*
X229391738Y-89280000D01*
G75*
G02*
X229120000Y-89008262I0J271738D01*
G01*
X229120000Y-88301738D01*
G75*
G02*
X229391738Y-88030000I271738J0D01*
G01*
X230348262Y-88030000D01*
G75*
G02*
X230620000Y-88301738I0J-271738D01*
G01*
X230620000Y-89008262D01*
G75*
G02*
X230348262Y-89280000I-271738J0D01*
G01*
G37*
%TD*%
%TO.C,C2*%
G36*
G01*
X227808262Y-80635000D02*
X226851738Y-80635000D01*
G75*
G02*
X226580000Y-80363262I0J271738D01*
G01*
X226580000Y-79656738D01*
G75*
G02*
X226851738Y-79385000I271738J0D01*
G01*
X227808262Y-79385000D01*
G75*
G02*
X228080000Y-79656738I0J-271738D01*
G01*
X228080000Y-80363262D01*
G75*
G02*
X227808262Y-80635000I-271738J0D01*
G01*
G37*
G36*
G01*
X227808262Y-82685000D02*
X226851738Y-82685000D01*
G75*
G02*
X226580000Y-82413262I0J271738D01*
G01*
X226580000Y-81706738D01*
G75*
G02*
X226851738Y-81435000I271738J0D01*
G01*
X227808262Y-81435000D01*
G75*
G02*
X228080000Y-81706738I0J-271738D01*
G01*
X228080000Y-82413262D01*
G75*
G02*
X227808262Y-82685000I-271738J0D01*
G01*
G37*
%TD*%
D11*
%TO.C,USART1_GND1*%
X176530000Y-83820000D03*
%TD*%
%TO.C,USART3_GND1*%
X171450000Y-83820000D03*
%TD*%
%TO.C,USART6_GND1*%
X166370000Y-83820000D03*
%TD*%
D14*
%TO.C,H4*%
X242570000Y-53340000D03*
%TD*%
%TO.C,H3*%
X242570000Y-132080000D03*
%TD*%
%TO.C,H2*%
X158750000Y-130810000D03*
%TD*%
%TO.C,H1*%
X158750000Y-54610000D03*
%TD*%
D10*
%TO.C,Pinout1*%
X229870000Y-114300000D03*
X229870000Y-111760000D03*
X229870000Y-109220000D03*
X229870000Y-106680000D03*
X229870000Y-104140000D03*
D11*
X229870000Y-101600000D03*
%TD*%
D12*
%TO.C,C1*%
X179030000Y-58420000D03*
D13*
X176530000Y-58420000D03*
%TD*%
D10*
%TO.C,JTAG/SWD1*%
X165100000Y-74930000D03*
X167640000Y-74930000D03*
X170180000Y-74930000D03*
X172720000Y-74930000D03*
X175260000Y-74930000D03*
D11*
X177800000Y-74930000D03*
%TD*%
%TO.C,PWM1*%
G36*
G01*
X163103348Y-101053860D02*
X163103348Y-101053860D01*
G75*
G02*
X164376140Y-101053860I636396J-636396D01*
G01*
X164376140Y-101053860D01*
G75*
G02*
X164376140Y-102326652I-636396J-636396D01*
G01*
X164376140Y-102326652D01*
G75*
G02*
X163103348Y-102326652I-636396J636396D01*
G01*
X163103348Y-102326652D01*
G75*
G02*
X163103348Y-101053860I636396J636396D01*
G01*
G37*
G36*
G01*
X164899399Y-99257809D02*
X164899399Y-99257809D01*
G75*
G02*
X166172191Y-99257809I636396J-636396D01*
G01*
X166172191Y-99257809D01*
G75*
G02*
X166172191Y-100530601I-636396J-636396D01*
G01*
X166172191Y-100530601D01*
G75*
G02*
X164899399Y-100530601I-636396J636396D01*
G01*
X164899399Y-100530601D01*
G75*
G02*
X164899399Y-99257809I636396J636396D01*
G01*
G37*
G36*
G01*
X166695450Y-97461758D02*
X166695450Y-97461758D01*
G75*
G02*
X167968242Y-97461758I636396J-636396D01*
G01*
X167968242Y-97461758D01*
G75*
G02*
X167968242Y-98734550I-636396J-636396D01*
G01*
X167968242Y-98734550D01*
G75*
G02*
X166695450Y-98734550I-636396J636396D01*
G01*
X166695450Y-98734550D01*
G75*
G02*
X166695450Y-97461758I636396J636396D01*
G01*
G37*
G36*
G01*
X168491502Y-95665706D02*
X168491502Y-95665706D01*
G75*
G02*
X169764294Y-95665706I636396J-636396D01*
G01*
X169764294Y-95665706D01*
G75*
G02*
X169764294Y-96938498I-636396J-636396D01*
G01*
X169764294Y-96938498D01*
G75*
G02*
X168491502Y-96938498I-636396J636396D01*
G01*
X168491502Y-96938498D01*
G75*
G02*
X168491502Y-95665706I636396J636396D01*
G01*
G37*
G36*
G01*
X170287553Y-93869655D02*
X170287553Y-93869655D01*
G75*
G02*
X171560345Y-93869655I636396J-636396D01*
G01*
X171560345Y-93869655D01*
G75*
G02*
X171560345Y-95142447I-636396J-636396D01*
G01*
X171560345Y-95142447D01*
G75*
G02*
X170287553Y-95142447I-636396J636396D01*
G01*
X170287553Y-95142447D01*
G75*
G02*
X170287553Y-93869655I636396J636396D01*
G01*
G37*
D15*
G36*
X171447208Y-92710000D02*
G01*
X172720000Y-91437208D01*
X173992792Y-92710000D01*
X172720000Y-93982792D01*
X171447208Y-92710000D01*
G37*
%TD*%
D10*
%TO.C,USART1*%
X165100000Y-87630000D03*
X167640000Y-87630000D03*
X170180000Y-87630000D03*
X172720000Y-87630000D03*
X175260000Y-87630000D03*
D11*
X177800000Y-87630000D03*
%TD*%
D10*
%TO.C,GNDs1*%
X212090000Y-80010000D03*
X212090000Y-77470000D03*
X212090000Y-74930000D03*
X212090000Y-72390000D03*
D11*
X212090000Y-69850000D03*
%TD*%
D10*
%TO.C,Cell_In1*%
X218440000Y-90170000D03*
X218440000Y-87630000D03*
X218440000Y-85090000D03*
X218440000Y-82550000D03*
D11*
X218440000Y-80010000D03*
%TD*%
D10*
%TO.C,PWR_Out1*%
X218440000Y-64770000D03*
X220980000Y-64770000D03*
X223520000Y-64770000D03*
X226060000Y-64770000D03*
D11*
X228600000Y-64770000D03*
%TD*%
%TO.C,C30*%
G36*
G01*
X206218262Y-113900000D02*
X205261738Y-113900000D01*
G75*
G02*
X204990000Y-113628262I0J271738D01*
G01*
X204990000Y-112921738D01*
G75*
G02*
X205261738Y-112650000I271738J0D01*
G01*
X206218262Y-112650000D01*
G75*
G02*
X206490000Y-112921738I0J-271738D01*
G01*
X206490000Y-113628262D01*
G75*
G02*
X206218262Y-113900000I-271738J0D01*
G01*
G37*
G36*
G01*
X206218262Y-115950000D02*
X205261738Y-115950000D01*
G75*
G02*
X204990000Y-115678262I0J271738D01*
G01*
X204990000Y-114971738D01*
G75*
G02*
X205261738Y-114700000I271738J0D01*
G01*
X206218262Y-114700000D01*
G75*
G02*
X206490000Y-114971738I0J-271738D01*
G01*
X206490000Y-115678262D01*
G75*
G02*
X206218262Y-115950000I-271738J0D01*
G01*
G37*
%TD*%
%TO.C,R6*%
G36*
G01*
X198520000Y-103348262D02*
X198520000Y-102391738D01*
G75*
G02*
X198791738Y-102120000I271738J0D01*
G01*
X199498262Y-102120000D01*
G75*
G02*
X199770000Y-102391738I0J-271738D01*
G01*
X199770000Y-103348262D01*
G75*
G02*
X199498262Y-103620000I-271738J0D01*
G01*
X198791738Y-103620000D01*
G75*
G02*
X198520000Y-103348262I0J271738D01*
G01*
G37*
G36*
G01*
X196470000Y-103348262D02*
X196470000Y-102391738D01*
G75*
G02*
X196741738Y-102120000I271738J0D01*
G01*
X197448262Y-102120000D01*
G75*
G02*
X197720000Y-102391738I0J-271738D01*
G01*
X197720000Y-103348262D01*
G75*
G02*
X197448262Y-103620000I-271738J0D01*
G01*
X196741738Y-103620000D01*
G75*
G02*
X196470000Y-103348262I0J271738D01*
G01*
G37*
%TD*%
%TO.C,R14*%
G36*
G01*
X193195000Y-131288262D02*
X193195000Y-130331738D01*
G75*
G02*
X193466738Y-130060000I271738J0D01*
G01*
X194173262Y-130060000D01*
G75*
G02*
X194445000Y-130331738I0J-271738D01*
G01*
X194445000Y-131288262D01*
G75*
G02*
X194173262Y-131560000I-271738J0D01*
G01*
X193466738Y-131560000D01*
G75*
G02*
X193195000Y-131288262I0J271738D01*
G01*
G37*
G36*
G01*
X191145000Y-131288262D02*
X191145000Y-130331738D01*
G75*
G02*
X191416738Y-130060000I271738J0D01*
G01*
X192123262Y-130060000D01*
G75*
G02*
X192395000Y-130331738I0J-271738D01*
G01*
X192395000Y-131288262D01*
G75*
G02*
X192123262Y-131560000I-271738J0D01*
G01*
X191416738Y-131560000D01*
G75*
G02*
X191145000Y-131288262I0J271738D01*
G01*
G37*
%TD*%
%TO.C,R10*%
G36*
G01*
X198520000Y-107158262D02*
X198520000Y-106201738D01*
G75*
G02*
X198791738Y-105930000I271738J0D01*
G01*
X199498262Y-105930000D01*
G75*
G02*
X199770000Y-106201738I0J-271738D01*
G01*
X199770000Y-107158262D01*
G75*
G02*
X199498262Y-107430000I-271738J0D01*
G01*
X198791738Y-107430000D01*
G75*
G02*
X198520000Y-107158262I0J271738D01*
G01*
G37*
G36*
G01*
X196470000Y-107158262D02*
X196470000Y-106201738D01*
G75*
G02*
X196741738Y-105930000I271738J0D01*
G01*
X197448262Y-105930000D01*
G75*
G02*
X197720000Y-106201738I0J-271738D01*
G01*
X197720000Y-107158262D01*
G75*
G02*
X197448262Y-107430000I-271738J0D01*
G01*
X196741738Y-107430000D01*
G75*
G02*
X196470000Y-107158262I0J271738D01*
G01*
G37*
%TD*%
%TO.C,R7*%
G36*
G01*
X204870000Y-110968262D02*
X204870000Y-110011738D01*
G75*
G02*
X205141738Y-109740000I271738J0D01*
G01*
X205848262Y-109740000D01*
G75*
G02*
X206120000Y-110011738I0J-271738D01*
G01*
X206120000Y-110968262D01*
G75*
G02*
X205848262Y-111240000I-271738J0D01*
G01*
X205141738Y-111240000D01*
G75*
G02*
X204870000Y-110968262I0J271738D01*
G01*
G37*
G36*
G01*
X202820000Y-110968262D02*
X202820000Y-110011738D01*
G75*
G02*
X203091738Y-109740000I271738J0D01*
G01*
X203798262Y-109740000D01*
G75*
G02*
X204070000Y-110011738I0J-271738D01*
G01*
X204070000Y-110968262D01*
G75*
G02*
X203798262Y-111240000I-271738J0D01*
G01*
X203091738Y-111240000D01*
G75*
G02*
X202820000Y-110968262I0J271738D01*
G01*
G37*
%TD*%
D16*
%TO.C,SW1*%
X223520000Y-120650000D03*
X230020000Y-120650000D03*
X223520000Y-125150000D03*
X230020000Y-125150000D03*
%TD*%
%TO.C,R11*%
G36*
G01*
X199790000Y-114778262D02*
X199790000Y-113821738D01*
G75*
G02*
X200061738Y-113550000I271738J0D01*
G01*
X200768262Y-113550000D01*
G75*
G02*
X201040000Y-113821738I0J-271738D01*
G01*
X201040000Y-114778262D01*
G75*
G02*
X200768262Y-115050000I-271738J0D01*
G01*
X200061738Y-115050000D01*
G75*
G02*
X199790000Y-114778262I0J271738D01*
G01*
G37*
G36*
G01*
X197740000Y-114778262D02*
X197740000Y-113821738D01*
G75*
G02*
X198011738Y-113550000I271738J0D01*
G01*
X198718262Y-113550000D01*
G75*
G02*
X198990000Y-113821738I0J-271738D01*
G01*
X198990000Y-114778262D01*
G75*
G02*
X198718262Y-115050000I-271738J0D01*
G01*
X198011738Y-115050000D01*
G75*
G02*
X197740000Y-114778262I0J271738D01*
G01*
G37*
%TD*%
%TO.C,L1*%
G36*
G01*
X193518262Y-105010000D02*
X192561738Y-105010000D01*
G75*
G02*
X192290000Y-104738262I0J271738D01*
G01*
X192290000Y-104031738D01*
G75*
G02*
X192561738Y-103760000I271738J0D01*
G01*
X193518262Y-103760000D01*
G75*
G02*
X193790000Y-104031738I0J-271738D01*
G01*
X193790000Y-104738262D01*
G75*
G02*
X193518262Y-105010000I-271738J0D01*
G01*
G37*
G36*
G01*
X193518262Y-107060000D02*
X192561738Y-107060000D01*
G75*
G02*
X192290000Y-106788262I0J271738D01*
G01*
X192290000Y-106081738D01*
G75*
G02*
X192561738Y-105810000I271738J0D01*
G01*
X193518262Y-105810000D01*
G75*
G02*
X193790000Y-106081738I0J-271738D01*
G01*
X193790000Y-106788262D01*
G75*
G02*
X193518262Y-107060000I-271738J0D01*
G01*
G37*
%TD*%
D17*
%TO.C,J1*%
X238760000Y-64770000D03*
X238760000Y-67310000D03*
X238760000Y-69850000D03*
%TD*%
%TO.C,C27*%
G36*
G01*
X203355000Y-102078262D02*
X203355000Y-101121738D01*
G75*
G02*
X203626738Y-100850000I271738J0D01*
G01*
X204333262Y-100850000D01*
G75*
G02*
X204605000Y-101121738I0J-271738D01*
G01*
X204605000Y-102078262D01*
G75*
G02*
X204333262Y-102350000I-271738J0D01*
G01*
X203626738Y-102350000D01*
G75*
G02*
X203355000Y-102078262I0J271738D01*
G01*
G37*
G36*
G01*
X201305000Y-102078262D02*
X201305000Y-101121738D01*
G75*
G02*
X201576738Y-100850000I271738J0D01*
G01*
X202283262Y-100850000D01*
G75*
G02*
X202555000Y-101121738I0J-271738D01*
G01*
X202555000Y-102078262D01*
G75*
G02*
X202283262Y-102350000I-271738J0D01*
G01*
X201576738Y-102350000D01*
G75*
G02*
X201305000Y-102078262I0J271738D01*
G01*
G37*
%TD*%
%TO.C,C26*%
G36*
G01*
X203355000Y-107158262D02*
X203355000Y-106201738D01*
G75*
G02*
X203626738Y-105930000I271738J0D01*
G01*
X204333262Y-105930000D01*
G75*
G02*
X204605000Y-106201738I0J-271738D01*
G01*
X204605000Y-107158262D01*
G75*
G02*
X204333262Y-107430000I-271738J0D01*
G01*
X203626738Y-107430000D01*
G75*
G02*
X203355000Y-107158262I0J271738D01*
G01*
G37*
G36*
G01*
X201305000Y-107158262D02*
X201305000Y-106201738D01*
G75*
G02*
X201576738Y-105930000I271738J0D01*
G01*
X202283262Y-105930000D01*
G75*
G02*
X202555000Y-106201738I0J-271738D01*
G01*
X202555000Y-107158262D01*
G75*
G02*
X202283262Y-107430000I-271738J0D01*
G01*
X201576738Y-107430000D01*
G75*
G02*
X201305000Y-107158262I0J271738D01*
G01*
G37*
%TD*%
%TO.C,C23*%
G36*
G01*
X194465000Y-100808262D02*
X194465000Y-99851738D01*
G75*
G02*
X194736738Y-99580000I271738J0D01*
G01*
X195443262Y-99580000D01*
G75*
G02*
X195715000Y-99851738I0J-271738D01*
G01*
X195715000Y-100808262D01*
G75*
G02*
X195443262Y-101080000I-271738J0D01*
G01*
X194736738Y-101080000D01*
G75*
G02*
X194465000Y-100808262I0J271738D01*
G01*
G37*
G36*
G01*
X192415000Y-100808262D02*
X192415000Y-99851738D01*
G75*
G02*
X192686738Y-99580000I271738J0D01*
G01*
X193393262Y-99580000D01*
G75*
G02*
X193665000Y-99851738I0J-271738D01*
G01*
X193665000Y-100808262D01*
G75*
G02*
X193393262Y-101080000I-271738J0D01*
G01*
X192686738Y-101080000D01*
G75*
G02*
X192415000Y-100808262I0J271738D01*
G01*
G37*
%TD*%
%TO.C,C22*%
G36*
G01*
X194465000Y-110968262D02*
X194465000Y-110011738D01*
G75*
G02*
X194736738Y-109740000I271738J0D01*
G01*
X195443262Y-109740000D01*
G75*
G02*
X195715000Y-110011738I0J-271738D01*
G01*
X195715000Y-110968262D01*
G75*
G02*
X195443262Y-111240000I-271738J0D01*
G01*
X194736738Y-111240000D01*
G75*
G02*
X194465000Y-110968262I0J271738D01*
G01*
G37*
G36*
G01*
X192415000Y-110968262D02*
X192415000Y-110011738D01*
G75*
G02*
X192686738Y-109740000I271738J0D01*
G01*
X193393262Y-109740000D01*
G75*
G02*
X193665000Y-110011738I0J-271738D01*
G01*
X193665000Y-110968262D01*
G75*
G02*
X193393262Y-111240000I-271738J0D01*
G01*
X192686738Y-111240000D01*
G75*
G02*
X192415000Y-110968262I0J271738D01*
G01*
G37*
%TD*%
M02*
