%TF.GenerationSoftware,KiCad,Pcbnew,(5.1.6)-1*%
%TF.CreationDate,2020-10-23T19:33:20-04:00*%
%TF.ProjectId,ECE477,45434534-3737-42e6-9b69-6361645f7063,rev?*%
%TF.SameCoordinates,Original*%
%TF.FileFunction,Legend,Bot*%
%TF.FilePolarity,Positive*%
%FSLAX46Y46*%
G04 Gerber Fmt 4.6, Leading zero omitted, Abs format (unit mm)*
G04 Created by KiCad (PCBNEW (5.1.6)-1) date 2020-10-23 19:33:20*
%MOMM*%
%LPD*%
G01*
G04 APERTURE LIST*
%ADD10C,0.120000*%
%ADD11C,0.150000*%
G04 APERTURE END LIST*
D10*
%TO.C,R28*%
X242010000Y-92693748D02*
X242010000Y-93216252D01*
X240590000Y-92693748D02*
X240590000Y-93216252D01*
%TO.C,R27*%
X238050000Y-92726252D02*
X238050000Y-92203748D01*
X239470000Y-92726252D02*
X239470000Y-92203748D01*
%TO.C,R26*%
X238200000Y-113793748D02*
X238200000Y-114316252D01*
X236780000Y-113793748D02*
X236780000Y-114316252D01*
%TO.C,R25*%
X236930000Y-93718748D02*
X236930000Y-94241252D01*
X235510000Y-93718748D02*
X235510000Y-94241252D01*
%TO.C,R24*%
X239523748Y-81840000D02*
X240046252Y-81840000D01*
X239523748Y-83260000D02*
X240046252Y-83260000D01*
%TO.C,R18*%
X223781252Y-92150000D02*
X223258748Y-92150000D01*
X223781252Y-90730000D02*
X223258748Y-90730000D01*
%TO.C,R16*%
X223536252Y-87070000D02*
X223013748Y-87070000D01*
X223536252Y-85650000D02*
X223013748Y-85650000D01*
%TO.C,R15*%
X223536252Y-80720000D02*
X223013748Y-80720000D01*
X223536252Y-79300000D02*
X223013748Y-79300000D01*
%TO.C,C10*%
X246396252Y-84530000D02*
X245873748Y-84530000D01*
X246396252Y-83110000D02*
X245873748Y-83110000D01*
%TO.C,C8*%
X246641252Y-87070000D02*
X246118748Y-87070000D01*
X246641252Y-85650000D02*
X246118748Y-85650000D01*
%TO.C,C6*%
X230580000Y-92693748D02*
X230580000Y-93216252D01*
X229160000Y-92693748D02*
X229160000Y-93216252D01*
%TO.C,C4*%
X229160000Y-87891252D02*
X229160000Y-87368748D01*
X230580000Y-87891252D02*
X230580000Y-87368748D01*
%TO.C,C2*%
X226620000Y-81296252D02*
X226620000Y-80773748D01*
X228040000Y-81296252D02*
X228040000Y-80773748D01*
%TO.C,C30*%
X205030000Y-114561252D02*
X205030000Y-114038748D01*
X206450000Y-114561252D02*
X206450000Y-114038748D01*
%TO.C,R6*%
X197858748Y-102160000D02*
X198381252Y-102160000D01*
X197858748Y-103580000D02*
X198381252Y-103580000D01*
%TO.C,R14*%
X192533748Y-130100000D02*
X193056252Y-130100000D01*
X192533748Y-131520000D02*
X193056252Y-131520000D01*
%TO.C,R10*%
X197858748Y-107390000D02*
X198381252Y-107390000D01*
X197858748Y-105970000D02*
X198381252Y-105970000D01*
%TO.C,R7*%
X204208748Y-111200000D02*
X204731252Y-111200000D01*
X204208748Y-109780000D02*
X204731252Y-109780000D01*
%TO.C,R11*%
X199128748Y-113590000D02*
X199651252Y-113590000D01*
X199128748Y-115010000D02*
X199651252Y-115010000D01*
%TO.C,L1*%
X192330000Y-105671252D02*
X192330000Y-105148748D01*
X193750000Y-105671252D02*
X193750000Y-105148748D01*
%TO.C,C27*%
X202693748Y-100890000D02*
X203216252Y-100890000D01*
X202693748Y-102310000D02*
X203216252Y-102310000D01*
%TO.C,C26*%
X202693748Y-105970000D02*
X203216252Y-105970000D01*
X202693748Y-107390000D02*
X203216252Y-107390000D01*
%TO.C,C23*%
X193803748Y-99620000D02*
X194326252Y-99620000D01*
X193803748Y-101040000D02*
X194326252Y-101040000D01*
%TO.C,C22*%
X193803748Y-109780000D02*
X194326252Y-109780000D01*
X193803748Y-111200000D02*
X194326252Y-111200000D01*
%TO.C,R28*%
D11*
X240102380Y-92312142D02*
X239626190Y-91978809D01*
X240102380Y-91740714D02*
X239102380Y-91740714D01*
X239102380Y-92121666D01*
X239150000Y-92216904D01*
X239197619Y-92264523D01*
X239292857Y-92312142D01*
X239435714Y-92312142D01*
X239530952Y-92264523D01*
X239578571Y-92216904D01*
X239626190Y-92121666D01*
X239626190Y-91740714D01*
X239197619Y-92693095D02*
X239150000Y-92740714D01*
X239102380Y-92835952D01*
X239102380Y-93074047D01*
X239150000Y-93169285D01*
X239197619Y-93216904D01*
X239292857Y-93264523D01*
X239388095Y-93264523D01*
X239530952Y-93216904D01*
X240102380Y-92645476D01*
X240102380Y-93264523D01*
X239530952Y-93835952D02*
X239483333Y-93740714D01*
X239435714Y-93693095D01*
X239340476Y-93645476D01*
X239292857Y-93645476D01*
X239197619Y-93693095D01*
X239150000Y-93740714D01*
X239102380Y-93835952D01*
X239102380Y-94026428D01*
X239150000Y-94121666D01*
X239197619Y-94169285D01*
X239292857Y-94216904D01*
X239340476Y-94216904D01*
X239435714Y-94169285D01*
X239483333Y-94121666D01*
X239530952Y-94026428D01*
X239530952Y-93835952D01*
X239578571Y-93740714D01*
X239626190Y-93693095D01*
X239721428Y-93645476D01*
X239911904Y-93645476D01*
X240007142Y-93693095D01*
X240054761Y-93740714D01*
X240102380Y-93835952D01*
X240102380Y-94026428D01*
X240054761Y-94121666D01*
X240007142Y-94169285D01*
X239911904Y-94216904D01*
X239721428Y-94216904D01*
X239626190Y-94169285D01*
X239578571Y-94121666D01*
X239530952Y-94026428D01*
%TO.C,R26*%
X236292380Y-113412142D02*
X235816190Y-113078809D01*
X236292380Y-112840714D02*
X235292380Y-112840714D01*
X235292380Y-113221666D01*
X235340000Y-113316904D01*
X235387619Y-113364523D01*
X235482857Y-113412142D01*
X235625714Y-113412142D01*
X235720952Y-113364523D01*
X235768571Y-113316904D01*
X235816190Y-113221666D01*
X235816190Y-112840714D01*
X235387619Y-113793095D02*
X235340000Y-113840714D01*
X235292380Y-113935952D01*
X235292380Y-114174047D01*
X235340000Y-114269285D01*
X235387619Y-114316904D01*
X235482857Y-114364523D01*
X235578095Y-114364523D01*
X235720952Y-114316904D01*
X236292380Y-113745476D01*
X236292380Y-114364523D01*
X235292380Y-115221666D02*
X235292380Y-115031190D01*
X235340000Y-114935952D01*
X235387619Y-114888333D01*
X235530476Y-114793095D01*
X235720952Y-114745476D01*
X236101904Y-114745476D01*
X236197142Y-114793095D01*
X236244761Y-114840714D01*
X236292380Y-114935952D01*
X236292380Y-115126428D01*
X236244761Y-115221666D01*
X236197142Y-115269285D01*
X236101904Y-115316904D01*
X235863809Y-115316904D01*
X235768571Y-115269285D01*
X235720952Y-115221666D01*
X235673333Y-115126428D01*
X235673333Y-114935952D01*
X235720952Y-114840714D01*
X235768571Y-114793095D01*
X235863809Y-114745476D01*
%TO.C,R25*%
X235022380Y-93337142D02*
X234546190Y-93003809D01*
X235022380Y-92765714D02*
X234022380Y-92765714D01*
X234022380Y-93146666D01*
X234070000Y-93241904D01*
X234117619Y-93289523D01*
X234212857Y-93337142D01*
X234355714Y-93337142D01*
X234450952Y-93289523D01*
X234498571Y-93241904D01*
X234546190Y-93146666D01*
X234546190Y-92765714D01*
X234117619Y-93718095D02*
X234070000Y-93765714D01*
X234022380Y-93860952D01*
X234022380Y-94099047D01*
X234070000Y-94194285D01*
X234117619Y-94241904D01*
X234212857Y-94289523D01*
X234308095Y-94289523D01*
X234450952Y-94241904D01*
X235022380Y-93670476D01*
X235022380Y-94289523D01*
X234022380Y-95194285D02*
X234022380Y-94718095D01*
X234498571Y-94670476D01*
X234450952Y-94718095D01*
X234403333Y-94813333D01*
X234403333Y-95051428D01*
X234450952Y-95146666D01*
X234498571Y-95194285D01*
X234593809Y-95241904D01*
X234831904Y-95241904D01*
X234927142Y-95194285D01*
X234974761Y-95146666D01*
X235022380Y-95051428D01*
X235022380Y-94813333D01*
X234974761Y-94718095D01*
X234927142Y-94670476D01*
%TO.C,R24*%
X240427857Y-84652380D02*
X240761190Y-84176190D01*
X240999285Y-84652380D02*
X240999285Y-83652380D01*
X240618333Y-83652380D01*
X240523095Y-83700000D01*
X240475476Y-83747619D01*
X240427857Y-83842857D01*
X240427857Y-83985714D01*
X240475476Y-84080952D01*
X240523095Y-84128571D01*
X240618333Y-84176190D01*
X240999285Y-84176190D01*
X240046904Y-83747619D02*
X239999285Y-83700000D01*
X239904047Y-83652380D01*
X239665952Y-83652380D01*
X239570714Y-83700000D01*
X239523095Y-83747619D01*
X239475476Y-83842857D01*
X239475476Y-83938095D01*
X239523095Y-84080952D01*
X240094523Y-84652380D01*
X239475476Y-84652380D01*
X238618333Y-83985714D02*
X238618333Y-84652380D01*
X238856428Y-83604761D02*
X239094523Y-84319047D01*
X238475476Y-84319047D01*
%TO.C,R18*%
X224162857Y-90242380D02*
X224496190Y-89766190D01*
X224734285Y-90242380D02*
X224734285Y-89242380D01*
X224353333Y-89242380D01*
X224258095Y-89290000D01*
X224210476Y-89337619D01*
X224162857Y-89432857D01*
X224162857Y-89575714D01*
X224210476Y-89670952D01*
X224258095Y-89718571D01*
X224353333Y-89766190D01*
X224734285Y-89766190D01*
X223210476Y-90242380D02*
X223781904Y-90242380D01*
X223496190Y-90242380D02*
X223496190Y-89242380D01*
X223591428Y-89385238D01*
X223686666Y-89480476D01*
X223781904Y-89528095D01*
X222639047Y-89670952D02*
X222734285Y-89623333D01*
X222781904Y-89575714D01*
X222829523Y-89480476D01*
X222829523Y-89432857D01*
X222781904Y-89337619D01*
X222734285Y-89290000D01*
X222639047Y-89242380D01*
X222448571Y-89242380D01*
X222353333Y-89290000D01*
X222305714Y-89337619D01*
X222258095Y-89432857D01*
X222258095Y-89480476D01*
X222305714Y-89575714D01*
X222353333Y-89623333D01*
X222448571Y-89670952D01*
X222639047Y-89670952D01*
X222734285Y-89718571D01*
X222781904Y-89766190D01*
X222829523Y-89861428D01*
X222829523Y-90051904D01*
X222781904Y-90147142D01*
X222734285Y-90194761D01*
X222639047Y-90242380D01*
X222448571Y-90242380D01*
X222353333Y-90194761D01*
X222305714Y-90147142D01*
X222258095Y-90051904D01*
X222258095Y-89861428D01*
X222305714Y-89766190D01*
X222353333Y-89718571D01*
X222448571Y-89670952D01*
%TO.C,R16*%
X223917857Y-85162380D02*
X224251190Y-84686190D01*
X224489285Y-85162380D02*
X224489285Y-84162380D01*
X224108333Y-84162380D01*
X224013095Y-84210000D01*
X223965476Y-84257619D01*
X223917857Y-84352857D01*
X223917857Y-84495714D01*
X223965476Y-84590952D01*
X224013095Y-84638571D01*
X224108333Y-84686190D01*
X224489285Y-84686190D01*
X222965476Y-85162380D02*
X223536904Y-85162380D01*
X223251190Y-85162380D02*
X223251190Y-84162380D01*
X223346428Y-84305238D01*
X223441666Y-84400476D01*
X223536904Y-84448095D01*
X222108333Y-84162380D02*
X222298809Y-84162380D01*
X222394047Y-84210000D01*
X222441666Y-84257619D01*
X222536904Y-84400476D01*
X222584523Y-84590952D01*
X222584523Y-84971904D01*
X222536904Y-85067142D01*
X222489285Y-85114761D01*
X222394047Y-85162380D01*
X222203571Y-85162380D01*
X222108333Y-85114761D01*
X222060714Y-85067142D01*
X222013095Y-84971904D01*
X222013095Y-84733809D01*
X222060714Y-84638571D01*
X222108333Y-84590952D01*
X222203571Y-84543333D01*
X222394047Y-84543333D01*
X222489285Y-84590952D01*
X222536904Y-84638571D01*
X222584523Y-84733809D01*
%TO.C,R15*%
X223917857Y-78812380D02*
X224251190Y-78336190D01*
X224489285Y-78812380D02*
X224489285Y-77812380D01*
X224108333Y-77812380D01*
X224013095Y-77860000D01*
X223965476Y-77907619D01*
X223917857Y-78002857D01*
X223917857Y-78145714D01*
X223965476Y-78240952D01*
X224013095Y-78288571D01*
X224108333Y-78336190D01*
X224489285Y-78336190D01*
X222965476Y-78812380D02*
X223536904Y-78812380D01*
X223251190Y-78812380D02*
X223251190Y-77812380D01*
X223346428Y-77955238D01*
X223441666Y-78050476D01*
X223536904Y-78098095D01*
X222060714Y-77812380D02*
X222536904Y-77812380D01*
X222584523Y-78288571D01*
X222536904Y-78240952D01*
X222441666Y-78193333D01*
X222203571Y-78193333D01*
X222108333Y-78240952D01*
X222060714Y-78288571D01*
X222013095Y-78383809D01*
X222013095Y-78621904D01*
X222060714Y-78717142D01*
X222108333Y-78764761D01*
X222203571Y-78812380D01*
X222441666Y-78812380D01*
X222536904Y-78764761D01*
X222584523Y-78717142D01*
%TO.C,C10*%
X246777857Y-82527142D02*
X246825476Y-82574761D01*
X246968333Y-82622380D01*
X247063571Y-82622380D01*
X247206428Y-82574761D01*
X247301666Y-82479523D01*
X247349285Y-82384285D01*
X247396904Y-82193809D01*
X247396904Y-82050952D01*
X247349285Y-81860476D01*
X247301666Y-81765238D01*
X247206428Y-81670000D01*
X247063571Y-81622380D01*
X246968333Y-81622380D01*
X246825476Y-81670000D01*
X246777857Y-81717619D01*
X245825476Y-82622380D02*
X246396904Y-82622380D01*
X246111190Y-82622380D02*
X246111190Y-81622380D01*
X246206428Y-81765238D01*
X246301666Y-81860476D01*
X246396904Y-81908095D01*
X245206428Y-81622380D02*
X245111190Y-81622380D01*
X245015952Y-81670000D01*
X244968333Y-81717619D01*
X244920714Y-81812857D01*
X244873095Y-82003333D01*
X244873095Y-82241428D01*
X244920714Y-82431904D01*
X244968333Y-82527142D01*
X245015952Y-82574761D01*
X245111190Y-82622380D01*
X245206428Y-82622380D01*
X245301666Y-82574761D01*
X245349285Y-82527142D01*
X245396904Y-82431904D01*
X245444523Y-82241428D01*
X245444523Y-82003333D01*
X245396904Y-81812857D01*
X245349285Y-81717619D01*
X245301666Y-81670000D01*
X245206428Y-81622380D01*
%TO.C,C8*%
X246546666Y-85067142D02*
X246594285Y-85114761D01*
X246737142Y-85162380D01*
X246832380Y-85162380D01*
X246975238Y-85114761D01*
X247070476Y-85019523D01*
X247118095Y-84924285D01*
X247165714Y-84733809D01*
X247165714Y-84590952D01*
X247118095Y-84400476D01*
X247070476Y-84305238D01*
X246975238Y-84210000D01*
X246832380Y-84162380D01*
X246737142Y-84162380D01*
X246594285Y-84210000D01*
X246546666Y-84257619D01*
X245975238Y-84590952D02*
X246070476Y-84543333D01*
X246118095Y-84495714D01*
X246165714Y-84400476D01*
X246165714Y-84352857D01*
X246118095Y-84257619D01*
X246070476Y-84210000D01*
X245975238Y-84162380D01*
X245784761Y-84162380D01*
X245689523Y-84210000D01*
X245641904Y-84257619D01*
X245594285Y-84352857D01*
X245594285Y-84400476D01*
X245641904Y-84495714D01*
X245689523Y-84543333D01*
X245784761Y-84590952D01*
X245975238Y-84590952D01*
X246070476Y-84638571D01*
X246118095Y-84686190D01*
X246165714Y-84781428D01*
X246165714Y-84971904D01*
X246118095Y-85067142D01*
X246070476Y-85114761D01*
X245975238Y-85162380D01*
X245784761Y-85162380D01*
X245689523Y-85114761D01*
X245641904Y-85067142D01*
X245594285Y-84971904D01*
X245594285Y-84781428D01*
X245641904Y-84686190D01*
X245689523Y-84638571D01*
X245784761Y-84590952D01*
%TO.C,C6*%
X228577142Y-92788333D02*
X228624761Y-92740714D01*
X228672380Y-92597857D01*
X228672380Y-92502619D01*
X228624761Y-92359761D01*
X228529523Y-92264523D01*
X228434285Y-92216904D01*
X228243809Y-92169285D01*
X228100952Y-92169285D01*
X227910476Y-92216904D01*
X227815238Y-92264523D01*
X227720000Y-92359761D01*
X227672380Y-92502619D01*
X227672380Y-92597857D01*
X227720000Y-92740714D01*
X227767619Y-92788333D01*
X227672380Y-93645476D02*
X227672380Y-93455000D01*
X227720000Y-93359761D01*
X227767619Y-93312142D01*
X227910476Y-93216904D01*
X228100952Y-93169285D01*
X228481904Y-93169285D01*
X228577142Y-93216904D01*
X228624761Y-93264523D01*
X228672380Y-93359761D01*
X228672380Y-93550238D01*
X228624761Y-93645476D01*
X228577142Y-93693095D01*
X228481904Y-93740714D01*
X228243809Y-93740714D01*
X228148571Y-93693095D01*
X228100952Y-93645476D01*
X228053333Y-93550238D01*
X228053333Y-93359761D01*
X228100952Y-93264523D01*
X228148571Y-93216904D01*
X228243809Y-93169285D01*
%TO.C,C4*%
X231877142Y-87463333D02*
X231924761Y-87415714D01*
X231972380Y-87272857D01*
X231972380Y-87177619D01*
X231924761Y-87034761D01*
X231829523Y-86939523D01*
X231734285Y-86891904D01*
X231543809Y-86844285D01*
X231400952Y-86844285D01*
X231210476Y-86891904D01*
X231115238Y-86939523D01*
X231020000Y-87034761D01*
X230972380Y-87177619D01*
X230972380Y-87272857D01*
X231020000Y-87415714D01*
X231067619Y-87463333D01*
X231305714Y-88320476D02*
X231972380Y-88320476D01*
X230924761Y-88082380D02*
X231639047Y-87844285D01*
X231639047Y-88463333D01*
%TO.C,C2*%
X229337142Y-80868333D02*
X229384761Y-80820714D01*
X229432380Y-80677857D01*
X229432380Y-80582619D01*
X229384761Y-80439761D01*
X229289523Y-80344523D01*
X229194285Y-80296904D01*
X229003809Y-80249285D01*
X228860952Y-80249285D01*
X228670476Y-80296904D01*
X228575238Y-80344523D01*
X228480000Y-80439761D01*
X228432380Y-80582619D01*
X228432380Y-80677857D01*
X228480000Y-80820714D01*
X228527619Y-80868333D01*
X228527619Y-81249285D02*
X228480000Y-81296904D01*
X228432380Y-81392142D01*
X228432380Y-81630238D01*
X228480000Y-81725476D01*
X228527619Y-81773095D01*
X228622857Y-81820714D01*
X228718095Y-81820714D01*
X228860952Y-81773095D01*
X229432380Y-81201666D01*
X229432380Y-81820714D01*
%TO.C,C30*%
X207747142Y-113657142D02*
X207794761Y-113609523D01*
X207842380Y-113466666D01*
X207842380Y-113371428D01*
X207794761Y-113228571D01*
X207699523Y-113133333D01*
X207604285Y-113085714D01*
X207413809Y-113038095D01*
X207270952Y-113038095D01*
X207080476Y-113085714D01*
X206985238Y-113133333D01*
X206890000Y-113228571D01*
X206842380Y-113371428D01*
X206842380Y-113466666D01*
X206890000Y-113609523D01*
X206937619Y-113657142D01*
X206842380Y-113990476D02*
X206842380Y-114609523D01*
X207223333Y-114276190D01*
X207223333Y-114419047D01*
X207270952Y-114514285D01*
X207318571Y-114561904D01*
X207413809Y-114609523D01*
X207651904Y-114609523D01*
X207747142Y-114561904D01*
X207794761Y-114514285D01*
X207842380Y-114419047D01*
X207842380Y-114133333D01*
X207794761Y-114038095D01*
X207747142Y-113990476D01*
X206842380Y-115228571D02*
X206842380Y-115323809D01*
X206890000Y-115419047D01*
X206937619Y-115466666D01*
X207032857Y-115514285D01*
X207223333Y-115561904D01*
X207461428Y-115561904D01*
X207651904Y-115514285D01*
X207747142Y-115466666D01*
X207794761Y-115419047D01*
X207842380Y-115323809D01*
X207842380Y-115228571D01*
X207794761Y-115133333D01*
X207747142Y-115085714D01*
X207651904Y-115038095D01*
X207461428Y-114990476D01*
X207223333Y-114990476D01*
X207032857Y-115038095D01*
X206937619Y-115085714D01*
X206890000Y-115133333D01*
X206842380Y-115228571D01*
%TO.C,R6*%
X198286666Y-104972380D02*
X198620000Y-104496190D01*
X198858095Y-104972380D02*
X198858095Y-103972380D01*
X198477142Y-103972380D01*
X198381904Y-104020000D01*
X198334285Y-104067619D01*
X198286666Y-104162857D01*
X198286666Y-104305714D01*
X198334285Y-104400952D01*
X198381904Y-104448571D01*
X198477142Y-104496190D01*
X198858095Y-104496190D01*
X197429523Y-103972380D02*
X197620000Y-103972380D01*
X197715238Y-104020000D01*
X197762857Y-104067619D01*
X197858095Y-104210476D01*
X197905714Y-104400952D01*
X197905714Y-104781904D01*
X197858095Y-104877142D01*
X197810476Y-104924761D01*
X197715238Y-104972380D01*
X197524761Y-104972380D01*
X197429523Y-104924761D01*
X197381904Y-104877142D01*
X197334285Y-104781904D01*
X197334285Y-104543809D01*
X197381904Y-104448571D01*
X197429523Y-104400952D01*
X197524761Y-104353333D01*
X197715238Y-104353333D01*
X197810476Y-104400952D01*
X197858095Y-104448571D01*
X197905714Y-104543809D01*
%TO.C,R14*%
X193437857Y-132912380D02*
X193771190Y-132436190D01*
X194009285Y-132912380D02*
X194009285Y-131912380D01*
X193628333Y-131912380D01*
X193533095Y-131960000D01*
X193485476Y-132007619D01*
X193437857Y-132102857D01*
X193437857Y-132245714D01*
X193485476Y-132340952D01*
X193533095Y-132388571D01*
X193628333Y-132436190D01*
X194009285Y-132436190D01*
X192485476Y-132912380D02*
X193056904Y-132912380D01*
X192771190Y-132912380D02*
X192771190Y-131912380D01*
X192866428Y-132055238D01*
X192961666Y-132150476D01*
X193056904Y-132198095D01*
X191628333Y-132245714D02*
X191628333Y-132912380D01*
X191866428Y-131864761D02*
X192104523Y-132579047D01*
X191485476Y-132579047D01*
%TO.C,R10*%
X198762857Y-108782380D02*
X199096190Y-108306190D01*
X199334285Y-108782380D02*
X199334285Y-107782380D01*
X198953333Y-107782380D01*
X198858095Y-107830000D01*
X198810476Y-107877619D01*
X198762857Y-107972857D01*
X198762857Y-108115714D01*
X198810476Y-108210952D01*
X198858095Y-108258571D01*
X198953333Y-108306190D01*
X199334285Y-108306190D01*
X197810476Y-108782380D02*
X198381904Y-108782380D01*
X198096190Y-108782380D02*
X198096190Y-107782380D01*
X198191428Y-107925238D01*
X198286666Y-108020476D01*
X198381904Y-108068095D01*
X197191428Y-107782380D02*
X197096190Y-107782380D01*
X197000952Y-107830000D01*
X196953333Y-107877619D01*
X196905714Y-107972857D01*
X196858095Y-108163333D01*
X196858095Y-108401428D01*
X196905714Y-108591904D01*
X196953333Y-108687142D01*
X197000952Y-108734761D01*
X197096190Y-108782380D01*
X197191428Y-108782380D01*
X197286666Y-108734761D01*
X197334285Y-108687142D01*
X197381904Y-108591904D01*
X197429523Y-108401428D01*
X197429523Y-108163333D01*
X197381904Y-107972857D01*
X197334285Y-107877619D01*
X197286666Y-107830000D01*
X197191428Y-107782380D01*
%TO.C,R7*%
X204636666Y-112592380D02*
X204970000Y-112116190D01*
X205208095Y-112592380D02*
X205208095Y-111592380D01*
X204827142Y-111592380D01*
X204731904Y-111640000D01*
X204684285Y-111687619D01*
X204636666Y-111782857D01*
X204636666Y-111925714D01*
X204684285Y-112020952D01*
X204731904Y-112068571D01*
X204827142Y-112116190D01*
X205208095Y-112116190D01*
X204303333Y-111592380D02*
X203636666Y-111592380D01*
X204065238Y-112592380D01*
%TO.C,R11*%
X200032857Y-116402380D02*
X200366190Y-115926190D01*
X200604285Y-116402380D02*
X200604285Y-115402380D01*
X200223333Y-115402380D01*
X200128095Y-115450000D01*
X200080476Y-115497619D01*
X200032857Y-115592857D01*
X200032857Y-115735714D01*
X200080476Y-115830952D01*
X200128095Y-115878571D01*
X200223333Y-115926190D01*
X200604285Y-115926190D01*
X199080476Y-116402380D02*
X199651904Y-116402380D01*
X199366190Y-116402380D02*
X199366190Y-115402380D01*
X199461428Y-115545238D01*
X199556666Y-115640476D01*
X199651904Y-115688095D01*
X198128095Y-116402380D02*
X198699523Y-116402380D01*
X198413809Y-116402380D02*
X198413809Y-115402380D01*
X198509047Y-115545238D01*
X198604285Y-115640476D01*
X198699523Y-115688095D01*
%TO.C,L1*%
X195142380Y-105243333D02*
X195142380Y-104767142D01*
X194142380Y-104767142D01*
X195142380Y-106100476D02*
X195142380Y-105529047D01*
X195142380Y-105814761D02*
X194142380Y-105814761D01*
X194285238Y-105719523D01*
X194380476Y-105624285D01*
X194428095Y-105529047D01*
%TO.C,C27*%
X203597857Y-103607142D02*
X203645476Y-103654761D01*
X203788333Y-103702380D01*
X203883571Y-103702380D01*
X204026428Y-103654761D01*
X204121666Y-103559523D01*
X204169285Y-103464285D01*
X204216904Y-103273809D01*
X204216904Y-103130952D01*
X204169285Y-102940476D01*
X204121666Y-102845238D01*
X204026428Y-102750000D01*
X203883571Y-102702380D01*
X203788333Y-102702380D01*
X203645476Y-102750000D01*
X203597857Y-102797619D01*
X203216904Y-102797619D02*
X203169285Y-102750000D01*
X203074047Y-102702380D01*
X202835952Y-102702380D01*
X202740714Y-102750000D01*
X202693095Y-102797619D01*
X202645476Y-102892857D01*
X202645476Y-102988095D01*
X202693095Y-103130952D01*
X203264523Y-103702380D01*
X202645476Y-103702380D01*
X202312142Y-102702380D02*
X201645476Y-102702380D01*
X202074047Y-103702380D01*
%TO.C,C26*%
X203597857Y-108687142D02*
X203645476Y-108734761D01*
X203788333Y-108782380D01*
X203883571Y-108782380D01*
X204026428Y-108734761D01*
X204121666Y-108639523D01*
X204169285Y-108544285D01*
X204216904Y-108353809D01*
X204216904Y-108210952D01*
X204169285Y-108020476D01*
X204121666Y-107925238D01*
X204026428Y-107830000D01*
X203883571Y-107782380D01*
X203788333Y-107782380D01*
X203645476Y-107830000D01*
X203597857Y-107877619D01*
X203216904Y-107877619D02*
X203169285Y-107830000D01*
X203074047Y-107782380D01*
X202835952Y-107782380D01*
X202740714Y-107830000D01*
X202693095Y-107877619D01*
X202645476Y-107972857D01*
X202645476Y-108068095D01*
X202693095Y-108210952D01*
X203264523Y-108782380D01*
X202645476Y-108782380D01*
X201788333Y-107782380D02*
X201978809Y-107782380D01*
X202074047Y-107830000D01*
X202121666Y-107877619D01*
X202216904Y-108020476D01*
X202264523Y-108210952D01*
X202264523Y-108591904D01*
X202216904Y-108687142D01*
X202169285Y-108734761D01*
X202074047Y-108782380D01*
X201883571Y-108782380D01*
X201788333Y-108734761D01*
X201740714Y-108687142D01*
X201693095Y-108591904D01*
X201693095Y-108353809D01*
X201740714Y-108258571D01*
X201788333Y-108210952D01*
X201883571Y-108163333D01*
X202074047Y-108163333D01*
X202169285Y-108210952D01*
X202216904Y-108258571D01*
X202264523Y-108353809D01*
%TO.C,C23*%
X194707857Y-102337142D02*
X194755476Y-102384761D01*
X194898333Y-102432380D01*
X194993571Y-102432380D01*
X195136428Y-102384761D01*
X195231666Y-102289523D01*
X195279285Y-102194285D01*
X195326904Y-102003809D01*
X195326904Y-101860952D01*
X195279285Y-101670476D01*
X195231666Y-101575238D01*
X195136428Y-101480000D01*
X194993571Y-101432380D01*
X194898333Y-101432380D01*
X194755476Y-101480000D01*
X194707857Y-101527619D01*
X194326904Y-101527619D02*
X194279285Y-101480000D01*
X194184047Y-101432380D01*
X193945952Y-101432380D01*
X193850714Y-101480000D01*
X193803095Y-101527619D01*
X193755476Y-101622857D01*
X193755476Y-101718095D01*
X193803095Y-101860952D01*
X194374523Y-102432380D01*
X193755476Y-102432380D01*
X193422142Y-101432380D02*
X192803095Y-101432380D01*
X193136428Y-101813333D01*
X192993571Y-101813333D01*
X192898333Y-101860952D01*
X192850714Y-101908571D01*
X192803095Y-102003809D01*
X192803095Y-102241904D01*
X192850714Y-102337142D01*
X192898333Y-102384761D01*
X192993571Y-102432380D01*
X193279285Y-102432380D01*
X193374523Y-102384761D01*
X193422142Y-102337142D01*
%TO.C,C22*%
X194707857Y-112497142D02*
X194755476Y-112544761D01*
X194898333Y-112592380D01*
X194993571Y-112592380D01*
X195136428Y-112544761D01*
X195231666Y-112449523D01*
X195279285Y-112354285D01*
X195326904Y-112163809D01*
X195326904Y-112020952D01*
X195279285Y-111830476D01*
X195231666Y-111735238D01*
X195136428Y-111640000D01*
X194993571Y-111592380D01*
X194898333Y-111592380D01*
X194755476Y-111640000D01*
X194707857Y-111687619D01*
X194326904Y-111687619D02*
X194279285Y-111640000D01*
X194184047Y-111592380D01*
X193945952Y-111592380D01*
X193850714Y-111640000D01*
X193803095Y-111687619D01*
X193755476Y-111782857D01*
X193755476Y-111878095D01*
X193803095Y-112020952D01*
X194374523Y-112592380D01*
X193755476Y-112592380D01*
X193374523Y-111687619D02*
X193326904Y-111640000D01*
X193231666Y-111592380D01*
X192993571Y-111592380D01*
X192898333Y-111640000D01*
X192850714Y-111687619D01*
X192803095Y-111782857D01*
X192803095Y-111878095D01*
X192850714Y-112020952D01*
X193422142Y-112592380D01*
X192803095Y-112592380D01*
%TD*%
M02*
