M48
; DRILL file {KiCad (5.1.6)-1} date 10/23/20 19:33:24
; FORMAT={-:-/ absolute / inch / decimal}
; #@! TF.CreationDate,2020-10-23T19:33:24-04:00
; #@! TF.GenerationSoftware,Kicad,Pcbnew,(5.1.6)-1
FMAT,2
INCH
T1C0.0157
T2C0.0315
T3C0.0394
T4C0.1260
%
G90
G05
T1
X6.2Y-4.1
X6.3Y-3.7
X6.4Y-3.15
X6.6Y-4.1
X6.65Y-4.05
X6.65Y-4.4
X6.7646Y-4.4854
X6.9Y-3.65
X6.9Y-3.65
X6.95Y-4.2
X7.05Y-3.8
X7.05Y-4.05
X7.05Y-4.05
X7.05Y-4.1
X7.05Y-4.4
X7.2Y-2.3
X7.2Y-3.35
X7.2Y-4.95
X7.25Y-4.05
X7.25Y-4.2
X7.25Y-4.45
X7.25Y-5.15
X7.35Y-2.95
X7.35Y-3.45
X7.35Y-3.6
X7.4Y-3.35
X7.4Y-3.5
X7.45Y-3.6
X7.45Y-4.05
X7.45Y-4.9
X7.5Y-3.85
X7.55Y-3.6008
X7.5539Y-3.7039
X7.6Y-3.5
X7.6Y-3.6
X7.65Y-4.75
X7.6501Y-3.7001
X7.7Y-3.65
X7.7114Y-4.7886
X7.75Y-4.75
X7.7807Y-4.9693
X7.7902Y-3.6598
X7.8Y-3.4
X7.8Y-3.4
X7.8Y-3.95
X7.85Y-4.3
X7.85Y-4.4
X7.85Y-4.8
X7.85Y-5.15
X7.95Y-3.65
X8.0Y-4.7
X8.05Y-2.45
X8.05Y-2.6
X8.05Y-5.15
X8.0963Y-4.75
X8.2Y-4.7
X8.3Y-2.45
X8.35Y-3.9
X8.35Y-3.9
X8.45Y-3.9
X8.45Y-4.25
X8.5Y-3.8
X8.5Y-4.45
X8.6Y-3.75
X8.6Y-4.25
X8.7Y-3.65
X8.7Y-4.7
X8.7Y-4.95
X8.8Y-3.8
X8.85Y-3.7
X8.9Y-2.7
X9.05Y-3.3
X9.1Y-3.15
X9.15Y-3.4
X9.15Y-3.5
X9.15Y-3.55
X9.2Y-2.85
X9.2Y-3.2
X9.25Y-3.15
X9.25Y-3.6
X9.45Y-3.45
X9.5988Y-3.3512
X9.6Y-3.25
X9.6Y-3.4
T2
X6.95Y-2.3
X7.0484Y-2.3
X9.6Y-3.1
X9.6984Y-3.1
T3
X7.35Y-2.45
X7.35Y-2.55
X7.35Y-2.65
X6.95Y-3.3
X6.5Y-3.45
X6.6Y-3.45
X6.7Y-3.45
X6.8Y-3.45
X6.9Y-3.45
X7.0Y-3.45
X8.6Y-2.55
X8.7Y-2.55
X8.8Y-2.55
X8.9Y-2.55
X9.0Y-2.55
X8.6Y-3.15
X8.6Y-3.25
X8.6Y-3.35
X8.6Y-3.45
X8.6Y-3.55
X9.05Y-4.0
X9.05Y-4.1
X9.05Y-4.2
X9.05Y-4.3
X9.05Y-4.4
X9.05Y-4.5
X8.8Y-4.75
X8.8Y-4.9272
X9.0559Y-4.75
X9.0559Y-4.9272
X6.5Y-2.95
X6.6Y-2.95
X6.7Y-2.95
X6.8Y-2.95
X6.9Y-2.95
X7.0Y-2.95
X8.35Y-2.75
X8.35Y-2.85
X8.35Y-2.95
X8.35Y-3.05
X8.35Y-3.15
X9.4Y-2.55
X9.4Y-2.65
X9.4Y-2.75
X6.4464Y-4.0036
X6.5172Y-3.9328
X6.5879Y-3.8621
X6.6586Y-3.7914
X6.7293Y-3.7207
X6.8Y-3.65
X6.55Y-3.3
X6.75Y-3.3
T4
X6.25Y-2.15
X6.25Y-5.15
X9.55Y-5.2
X9.55Y-2.1
T0
M30
